<svg version="1.1" id="Capa_1" xmlns="http://www.w3.org/2000/svg" x="0" y="0" viewBox="0 0 512 512" xml:space="preserve"><path fill="#ffe100" d="M7.501 502.498h494.997V7.501H7.501z" transform="translate(1 1)"/><path fill="#ffa800" d="M476.895 502.498h25.603V7.501h-25.603z" transform="translate(1 1)"/><path fill="#fff" d="M7.501 502.498h25.603V7.501H7.501z" transform="translate(1 1)"/><path d="M502.499 511H7.501A8.501 8.501 0 01-1 502.499V7.501A8.501 8.501 0 017.501-1h494.998A8.501 8.501 0 01511 7.501v494.998a8.501 8.501 0 01-8.501 8.501zM16.002 493.998h477.996V16.002H16.002v477.996z" transform="translate(1 1)"/><path d="M391.551 468.328c-42.334 0-76.777-34.442-76.777-76.777a8.502 8.502 0 0117.002 0c0 32.959 26.815 59.775 59.775 59.775s59.775-26.815 59.775-59.775-26.815-59.775-59.775-59.775c-42.334 0-76.777-34.442-76.777-76.777s34.442-76.776 76.777-76.776 76.777 34.442 76.777 76.777a8.501 8.501 0 11-17.002 0c0-32.96-26.815-59.775-59.775-59.775S331.776 222.04 331.776 255c0 32.959 26.815 59.775 59.775 59.775 42.334 0 76.777 34.442 76.777 76.777s-34.443 76.776-76.777 76.776zm-179.223 0c-42.334 0-76.777-34.442-76.777-76.777a8.501 8.501 0 1117.002 0c0 32.959 26.814 59.775 59.775 59.775s59.775-26.815 59.775-59.775V186.724a8.501 8.501 0 1117.002 0V391.55c-.002 42.335-34.443 76.778-76.777 76.778z" transform="translate(1 1)"/></svg>